<mxfile host="app.diagrams.net" agent="Mozilla/5.0 (Macintosh; Intel Mac OS X 10_15_7) AppleWebKit/537.36 (KHTML, like Gecko) Chrome/130.0.0.0 Safari/537.36" version="24.8.3">
  <diagram name="Page-1" id="3e8102d1-ef87-2e61-34e1-82d9a586fe2e">
    <mxGraphModel dx="2530" dy="1457" grid="1" gridSize="10" guides="1" tooltips="1" connect="1" arrows="1" fold="1" page="1" pageScale="1" pageWidth="400" pageHeight="600" background="none" math="0" shadow="0">
      <root>
        <mxCell id="0" />
        <mxCell id="1" parent="0" />
        <mxCell id="70666756c84bb93c-1" value="" style="ellipse;whiteSpace=wrap;html=1;rounded=0;shadow=0;comic=0;strokeWidth=1;fontFamily=Verdana;fontSize=14;strokeColor=none;fillColor=#0069D1;" parent="1" vertex="1">
          <mxGeometry x="350" y="320" width="500" height="500" as="geometry" />
        </mxCell>
        <mxCell id="70666756c84bb93c-2" value="Your&lt;div&gt;joy&lt;div&gt;is&lt;/div&gt;&lt;div&gt;your&lt;/div&gt;&lt;div&gt;job&lt;/div&gt;&lt;/div&gt;" style="ellipse;whiteSpace=wrap;html=1;rounded=0;shadow=0;comic=0;strokeWidth=1;fontFamily=Verdana;fontSize=22;strokeColor=none;fillColor=#ffffff;fontColor=#0069D1;fontStyle=1" parent="1" vertex="1">
          <mxGeometry x="470" y="440" width="260" height="260" as="geometry" />
        </mxCell>
        <mxCell id="70666756c84bb93c-5" value="Church" style="shadow=0;dashed=0;html=1;strokeColor=none;fillColor=#ffffff;labelPosition=center;verticalLabelPosition=bottom;verticalAlign=top;shape=mxgraph.office.users.users;rounded=0;comic=0;fontFamily=Verdana;fontSize=14;fontColor=#FFFFFF;" parent="1" vertex="1">
          <mxGeometry x="420" y="650" width="46" height="50" as="geometry" />
        </mxCell>
        <mxCell id="70666756c84bb93c-6" value="Video&lt;div&gt;Games&lt;/div&gt;" style="shadow=0;dashed=0;html=1;strokeColor=none;fillColor=#ffffff;labelPosition=center;verticalLabelPosition=bottom;verticalAlign=top;shape=mxgraph.office.users.call_center_agent;rounded=0;comic=0;fontFamily=Verdana;fontSize=14;fontColor=#FFFFFF;" parent="1" vertex="1">
          <mxGeometry x="746" y="623" width="46" height="55" as="geometry" />
        </mxCell>
        <mxCell id="70666756c84bb93c-7" value="Connections" style="shadow=0;dashed=0;html=1;strokeColor=none;fillColor=#ffffff;labelPosition=center;verticalLabelPosition=bottom;verticalAlign=top;shape=mxgraph.office.users.response_group;rounded=0;comic=0;fontFamily=Verdana;fontSize=14;fontColor=#FFFFFF;" parent="1" vertex="1">
          <mxGeometry x="420" y="413" width="58" height="54" as="geometry" />
        </mxCell>
        <mxCell id="70666756c84bb93c-8" value="DIY&lt;div&gt;Projects&lt;/div&gt;" style="shadow=0;dashed=0;html=1;strokeColor=none;fillColor=#ffffff;labelPosition=center;verticalLabelPosition=bottom;verticalAlign=top;shape=mxgraph.office.services.central_management_service;rounded=0;comic=0;fontFamily=Verdana;fontSize=14;fontColor=#FFFFFF;" parent="1" vertex="1">
          <mxGeometry x="387" y="523" width="51" height="54" as="geometry" />
        </mxCell>
        <mxCell id="70666756c84bb93c-9" value="Work/&lt;div&gt;Education&lt;/div&gt;" style="shadow=0;dashed=0;html=1;strokeColor=none;fillColor=#ffffff;labelPosition=center;verticalLabelPosition=bottom;verticalAlign=top;shape=mxgraph.office.servers.on_premises_server;rounded=0;comic=0;fontFamily=Verdana;fontSize=14;fontColor=#FFFFFF;" parent="1" vertex="1">
          <mxGeometry x="770" y="492" width="44" height="58" as="geometry" />
        </mxCell>
        <mxCell id="70666756c84bb93c-10" value="Achievements" style="shadow=0;dashed=0;html=1;strokeColor=none;fillColor=#ffffff;labelPosition=center;verticalLabelPosition=bottom;verticalAlign=top;shape=mxgraph.office.security.token_service;rounded=0;comic=0;fontFamily=Verdana;fontSize=14;fontColor=#FFFFFF;" parent="1" vertex="1">
          <mxGeometry x="520" y="702" width="60" height="56" as="geometry" />
        </mxCell>
        <mxCell id="70666756c84bb93c-11" value="Work" style="shadow=0;dashed=0;html=1;strokeColor=none;fillColor=#ffffff;labelPosition=center;verticalLabelPosition=bottom;verticalAlign=top;shape=mxgraph.office.concepts.on_premises;rounded=0;comic=0;fontFamily=Verdana;fontSize=14;fontColor=#FFFFFF;" parent="1" vertex="1">
          <mxGeometry x="663" y="700" width="34" height="55" as="geometry" />
        </mxCell>
        <mxCell id="70666756c84bb93c-12" value="Missions" style="shadow=0;dashed=0;html=1;strokeColor=none;fillColor=#ffffff;labelPosition=center;verticalLabelPosition=bottom;verticalAlign=top;shape=mxgraph.office.concepts.globe_internet;rounded=0;comic=0;fontFamily=Verdana;fontSize=14;fontColor=#FFFFFF;" parent="1" vertex="1">
          <mxGeometry x="511" y="350" width="49" height="49" as="geometry" />
        </mxCell>
        <mxCell id="70666756c84bb93c-13" value="Environmental&lt;div&gt;Issues&lt;/div&gt;" style="shadow=0;dashed=0;html=1;strokeColor=none;shape=mxgraph.mscae.general.continuous_cycle;fillColor=#ffffff;rounded=0;comic=0;fontFamily=Verdana;fontSize=14;fontColor=#FFFFFF;verticalAlign=top;labelPosition=center;verticalLabelPosition=bottom;align=center;" parent="1" vertex="1">
          <mxGeometry x="620" y="345" width="48" height="50" as="geometry" />
        </mxCell>
        <mxCell id="70666756c84bb93c-15" value="Finances" style="shape=mxgraph.signs.travel.euro;html=1;fillColor=#ffffff;strokeColor=none;verticalLabelPosition=bottom;verticalAlign=top;align=center;rounded=0;shadow=0;dashed=0;comic=0;fontFamily=Verdana;fontSize=14;fontColor=#FFFFFF;" parent="1" vertex="1">
          <mxGeometry x="707" y="399" width="45" height="51" as="geometry" />
        </mxCell>
      </root>
    </mxGraphModel>
  </diagram>
</mxfile>
